<svg xmlns="http://www.w3.org/2000/svg" viewBox="0 0 1200 900" fill="none">
  <defs>
    <linearGradient id="sky" x1="60" y1="60" x2="1040" y2="860" gradientUnits="userSpaceOnUse">
      <stop offset="0" stop-color="#dbe9f7"/>
      <stop offset="0.45" stop-color="#d5d8ef"/>
      <stop offset="1" stop-color="#f3cfc2"/>
    </linearGradient>
    <radialGradient id="glow" cx="0" cy="0" r="1" gradientUnits="userSpaceOnUse" gradientTransform="translate(760 260) rotate(96) scale(470 610)">
      <stop stop-color="#fffef7" stop-opacity="0.92"/>
      <stop offset="1" stop-color="#fffef7" stop-opacity="0"/>
    </radialGradient>
    <linearGradient id="face-a" x1="0" y1="0" x2="0" y2="1">
      <stop offset="0" stop-color="#f8f3ea"/>
      <stop offset="1" stop-color="#f0d8c0"/>
    </linearGradient>
    <linearGradient id="face-b" x1="0" y1="0" x2="1" y2="1">
      <stop offset="0" stop-color="#f4b392"/>
      <stop offset="1" stop-color="#d58d86"/>
    </linearGradient>
    <linearGradient id="face-c" x1="0" y1="0" x2="1" y2="1">
      <stop offset="0" stop-color="#9cb9d9"/>
      <stop offset="1" stop-color="#6f86b8"/>
    </linearGradient>
    <linearGradient id="platform" x1="0" y1="0" x2="1" y2="1">
      <stop offset="0" stop-color="#f6f4ef"/>
      <stop offset="1" stop-color="#d4d7dc"/>
    </linearGradient>
    <linearGradient id="path" x1="0" y1="0" x2="1" y2="0">
      <stop offset="0" stop-color="#f9ede0"/>
      <stop offset="1" stop-color="#e7d1b8"/>
    </linearGradient>
  </defs>
  <rect width="1200" height="900" fill="url(#sky)"/>
  <circle cx="760" cy="260" r="470" fill="url(#glow)"/>

  <g opacity="0.7">
    <rect x="150" y="120" width="16" height="16" fill="#f5f8ff"/>
    <rect x="1080" y="170" width="22" height="22" fill="#f9f1e8"/>
    <rect x="980" y="690" width="18" height="18" fill="#fff7ef"/>
    <rect x="108" y="640" width="12" height="12" fill="#e8f0ff"/>
  </g>

  <g transform="translate(332 160)">
    <polygon points="260,38 488,172 254,302 32,170" fill="url(#platform)" opacity="0.92"/>
    <polygon points="254,302 488,172 488,238 254,370" fill="#d8c0aa"/>
    <polygon points="254,302 32,170 32,236 254,370" fill="#9db3cb"/>

    <polygon points="184,68 302,136 184,204 66,136" fill="#ecf1f8"/>
    <polygon points="184,204 302,136 302,306 184,374" fill="url(#face-b)"/>
    <polygon points="184,204 66,136 66,304 184,374" fill="url(#face-c)"/>

    <polygon points="374,160 460,210 374,260 288,210" fill="#f4f7fa"/>
    <polygon points="374,260 460,210 460,342 374,392" fill="#e7b59f"/>
    <polygon points="374,260 288,210 288,342 374,392" fill="#8fa9cd"/>

    <path d="M184 112 L374 220" stroke="url(#path)" stroke-width="28" stroke-linecap="round"/>
    <path d="M374 220 L302 260 L238 224" stroke="url(#path)" stroke-width="24" stroke-linecap="round" stroke-linejoin="round"/>

    <circle cx="184" cy="88" r="18" fill="#4a6b8f"/>
    <path d="M178 73 C190 64 205 68 211 78 C201 85 188 91 177 89 Z" fill="#f7f9fc"/>

    <circle cx="374" cy="196" r="17" fill="#e38d60"/>
    <rect x="365" y="178" width="20" height="20" rx="5" fill="#ffe4cc"/>
  </g>

  <g opacity="0.28">
    <path d="M130 770 C300 640 550 680 720 770" stroke="#ffffff" stroke-width="8" stroke-linecap="round"/>
    <path d="M220 810 C440 690 760 740 980 820" stroke="#fff7f0" stroke-width="6" stroke-linecap="round"/>
  </g>
</svg>
